<svg width="134" height="28" viewBox="0 0 134 28" fill="none" xmlns="http://www.w3.org/2000/svg">
<g clip-path="url(#clip0_362_594)">
<path fill-rule="evenodd" clip-rule="evenodd" d="M9.16004 24.8205C6.5581 24.4091 4.46787 23.9809 1.91797 23.4603C3.35771 26.634 30.6954 26.1722 33.28 26.147C31.875 25.9371 15.6822 25.4669 10.6692 24.7365C10.01 24.6442 10.2268 23.9725 9.18606 23.7626C5.27447 22.965 2.24755 22.1422 1.93532 23.0741C3.66994 23.5947 6.93104 24.1152 9.16004 24.8205Z" fill="white"/>
<path fill-rule="evenodd" clip-rule="evenodd" d="M11.0329 1.00048C10.4202 1.14408 9.84839 1.41837 9.35921 1.8033C8.87003 2.18823 8.47586 2.67408 8.20549 3.22536C7.94529 3.67034 6.76574 5.57619 6.93921 6.02956C7.62438 6.29823 20.079 6.23946 21.5708 6.02956C21.7703 6.02956 11.8655 5.92881 7.13869 5.91202C7.37824 5.15453 7.71016 4.42737 8.12743 3.7459C8.99474 2.1507 9.86205 1.52941 11.0416 1.27754C13.9558 0.656248 15.9246 1.04245 19.1076 0.983684C19.3678 0.983684 13.843 0.387582 11.0329 0.983684V1.00048Z" fill="white"/>
<path fill-rule="evenodd" clip-rule="evenodd" d="M13.2022 20.334C13.3323 19.3852 13.4364 15.2965 13.1415 14.6836C12.8033 15.1034 12.942 19.4608 13.2022 20.334Z" fill="white"/>
<path fill-rule="evenodd" clip-rule="evenodd" d="M7.11415 14.4653C6.48379 14.2398 5.81738 14.1232 5.14534 14.1211C4.80709 14.1211 5.07596 14.5073 5.18871 14.6081C5.78969 14.8075 6.41837 14.9179 7.05343 14.9355C7.42638 14.9355 7.27026 14.6332 7.11415 14.4653Z" fill="white"/>
<path fill-rule="evenodd" clip-rule="evenodd" d="M2.75044 14.0708C2.59433 14.2219 2.68106 14.9775 3.16675 15.0783C3.5113 15.1611 3.87522 15.1193 4.19018 14.9607C4.64119 14.6837 4.64986 14.0456 4.11213 14.0204C3.65873 13.9591 3.19768 13.9761 2.75044 14.0708Z" fill="white"/>
<path fill-rule="evenodd" clip-rule="evenodd" d="M22.4305 0.285968C19.5076 0.118052 13.4711 -0.293342 10.8171 0.344739C9.10853 0.764529 7.80755 1.73005 6.94024 3.97173C6.63868 4.71917 6.27313 5.44092 5.84742 6.12945C5.6306 6.47368 2.47357 8.34594 1.12056 10.4365C0.209883 11.8386 -0.145716 16.1121 0.0537667 19.8566C0.192537 22.4845 0.600175 24.8941 1.27668 25.784C1.95318 26.674 7.80755 27.396 9.28199 27.5136C16.7496 28.0845 23.3585 28.0005 23.7922 27.9921C24.434 27.9921 15.6394 27.7906 9.29933 27.1525C7.65144 26.993 2.77713 25.91 1.79707 25.2467C0.817003 24.5834 0.461404 21.4602 0.296615 19.8398C0.0450936 17.3966 0.0277473 12.9384 1.38943 10.6044C2.54033 9.01457 3.99461 7.65238 5.67396 6.59122C4.80665 8.77413 7.27849 10.7136 8.16315 12.5522C9.36005 15.071 8.65752 18.6644 9.42943 20.2596C9.60289 20.5115 9.7937 20.8221 10.1493 20.8809C10.5049 20.9396 14.8501 21.1076 16.3766 21.1411C18.5449 21.1915 18.3454 21.2167 18.8918 21.2083C19.7591 21.2083 19.9673 21.1244 16.394 20.9648L10.1406 20.7046C10.1406 14.1139 8.7616 13.4338 13.7747 13.0644C16.1945 12.8797 20.4443 12.972 20.4703 12.9217C18.2482 12.7538 16.0166 12.737 13.792 12.8713C8.11111 13.3247 9.94982 13.9963 9.94982 20.5283C9.08251 20.1924 9.32535 14.2818 8.44937 12.6866C7.12238 10.2518 4.64186 8.48867 6.28108 5.58372C6.56241 5.11038 6.81719 4.62272 7.04432 4.12285C7.91163 1.94834 9.2126 1.0164 10.9039 0.613405C14.4165 -0.226176 22.6733 0.294364 22.4305 0.285968ZM7.7295 19.1429C6.74943 18.5049 3.89597 18.9247 2.75111 18.0095C3.35823 19.3109 6.64535 19.3109 8.04173 19.5459C7.97234 19.2605 7.98969 19.3109 7.7295 19.1429ZM2.02257 14.4665C2.02257 15.432 2.70775 15.835 4.1128 15.919C4.75461 15.919 4.76328 15.4572 5.84742 15.5663C6.36781 15.6167 6.85351 15.7426 7.06166 15.7678C6.68952 15.6045 6.28988 15.5078 5.88212 15.4824C4.61584 15.348 4.82399 15.8182 4.06076 15.7594C3.08937 15.7007 2.14399 15.3312 2.17869 14.4833C2.17869 13.2659 3.18477 13.6437 4.18218 13.736C5.0495 13.8032 5.96018 13.904 6.62801 14.0215C9.40341 14.5085 8.2759 14.1223 6.68005 13.8872C6.34179 13.8368 5.21428 13.6857 4.17351 13.5849C2.97661 13.4758 2.09195 13.098 2.04859 14.4665H2.02257Z" fill="white"/>
<path fill-rule="evenodd" clip-rule="evenodd" d="M12.5592 20.3262C12.6979 19.3774 12.802 15.2887 12.4985 14.6758C12.1689 15.0956 12.3076 19.453 12.5592 20.3262Z" fill="white"/>
<path fill-rule="evenodd" clip-rule="evenodd" d="M11.8834 20.3189C12.0222 19.3702 12.1262 15.2814 11.8227 14.6602C11.4931 15.0799 11.6319 19.4458 11.8834 20.3189Z" fill="white"/>
<path fill-rule="evenodd" clip-rule="evenodd" d="M13.8795 20.3535C14.0182 19.4048 14.1223 15.316 13.8188 14.7031C13.4892 15.1229 13.628 19.4803 13.8795 20.3535Z" fill="white"/>
<path fill-rule="evenodd" clip-rule="evenodd" d="M14.5904 20.3691C14.7205 19.4204 14.8333 15.3316 14.5297 14.7188C14.2001 15.1385 14.3389 19.496 14.5904 20.3691Z" fill="white"/>
<path fill-rule="evenodd" clip-rule="evenodd" d="M15.2506 20.3775C15.3893 19.4288 15.4934 15.34 15.1899 14.7188C14.8603 15.1385 14.9991 19.5044 15.2506 20.3775Z" fill="white"/>
<path fill-rule="evenodd" clip-rule="evenodd" d="M15.9149 20.3926C16.045 19.4438 16.149 15.3971 15.8455 14.7422C15.5159 15.162 15.6547 19.5194 15.9149 20.3926Z" fill="white"/>
<path fill-rule="evenodd" clip-rule="evenodd" d="M16.5826 20.4004C16.7214 19.4516 16.8255 15.4049 16.5219 14.75C16.1923 15.1698 16.3311 19.5272 16.5826 20.4004Z" fill="white"/>
<path fill-rule="evenodd" clip-rule="evenodd" d="M17.2545 20.4121C17.3932 19.4634 17.4973 15.3746 17.1938 14.7617C16.8642 15.1731 17.003 19.5305 17.2545 20.4121Z" fill="white"/>
<path fill-rule="evenodd" clip-rule="evenodd" d="M17.9107 20.3848C18.0495 19.4444 18.1536 15.3473 17.85 14.7344C17.5204 15.1542 17.6592 19.52 17.9107 20.3848Z" fill="white"/>
<path fill-rule="evenodd" clip-rule="evenodd" d="M11.1373 20.3535C11.2761 19.4048 11.3801 15.316 11.0766 14.7031C10.747 15.1229 10.8858 19.4803 11.1373 20.3535Z" fill="white"/>
<path fill-rule="evenodd" clip-rule="evenodd" d="M24.3398 21.4096V7.13672H28.7892L33.7329 18.0513L38.6679 7.13672H43.1345V21.4096H39.8474V10.7469L35.1292 21.4096H32.3452L27.627 10.7469V21.4096H24.3398ZM51.6082 7.13672H54.8953V17.1781L62.8052 7.16191H66.0923V21.4348H62.8052V11.4018L54.904 21.4096H51.6082V7.13672ZM82.9876 7.13672L90.0129 21.4096H86.4135L81.5305 10.8225L76.7256 21.4096H73.1002L80.1255 7.13672H82.9876ZM105.46 7.13672L112.485 21.4096H108.886L104.081 10.8225L99.1977 21.4096H95.5723L102.606 7.13672H105.46ZM119.519 7.13672H122.806V17.1781L130.716 7.16191H134.003V21.4348H130.716V11.4018L122.815 21.4096H119.519V7.13672Z" fill="white"/>
</g>
<defs>
<clipPath id="clip0_362_594">
<rect width="134" height="28" fill="white"/>
</clipPath>
</defs>
</svg>
