<svg width="39" height="38" viewBox="0 0 39 38" fill="none" xmlns="http://www.w3.org/2000/svg">
<g clip-path="url(#clip0_315_1125)">
<path d="M9.32492 5.51329C8.74032 6.27842 8.21636 7.08814 7.75781 7.93504C9.29468 8.84913 10.9411 9.56444 12.6576 10.0639C12.7151 9.76051 12.7673 9.46237 12.83 9.16422C13.2857 6.66102 14.143 4.24817 15.3687 2.01928C15.7064 1.43322 16.1094 0.88748 16.5702 0.392578C15.6467 0.642007 14.7573 1.00387 13.9218 1.47007C12.1277 2.48633 10.5627 3.86285 9.32492 5.51329Z" fill="#B49568"/>
<path d="M13.5355 11.2773C13.172 13.656 12.98 16.0578 12.9609 18.4641H26.0201C26.002 16.0576 25.8082 13.6556 25.4403 11.2773C23.4949 11.7439 21.5014 11.9792 19.501 11.9782C17.4918 11.9812 15.4894 11.7459 13.5355 11.2773Z" fill="#B49568"/>
<path d="M19.3259 25.9635C21.4018 25.9617 23.4701 26.2146 25.4846 26.7167C25.8481 24.3398 26.0401 21.9397 26.0592 19.5352H13C13.0189 21.9098 13.2074 24.2801 13.5642 26.6278C15.4531 26.1869 17.3863 25.964 19.3259 25.9635Z" fill="#B49568"/>
<path d="M5.05469 18.4637H11.8873C11.904 15.9587 12.1083 13.4584 12.4984 10.984C11.0666 10.5825 9.67878 10.0375 8.35605 9.35731C7.99562 9.17424 7.64563 8.97548 7.31132 8.77148C5.86912 11.8012 5.09927 15.1077 5.05469 18.4637Z" fill="#B49568"/>
<path d="M7.25517 29.0966C8.89675 28.1438 10.6518 27.4022 12.4789 26.8893C12.1075 24.4551 11.9102 21.9975 11.8886 19.5352H5.05078C5.09817 22.843 5.84969 26.1027 7.25517 29.0966Z" fill="#B49568"/>
<path d="M20.6637 0.32433C20.3121 0.112135 19.9093 0 19.4988 0C19.0883 0 18.6855 0.112135 18.3339 0.32433C17.8815 0.602046 17.4803 0.955955 17.1482 1.37044C16.2003 2.57305 15.4701 3.93262 14.9908 5.38751C14.4234 7.00898 13.9901 8.67442 13.6953 10.367C15.5964 10.8202 17.5446 11.045 19.4988 11.0365C21.4538 11.0375 23.402 10.8057 25.3023 10.3461C25.2449 10.0218 25.1822 9.69749 25.1195 9.38365C24.6823 7.00273 23.8676 4.70716 22.7062 2.58393C22.2267 1.67018 21.5241 0.892838 20.6637 0.32433Z" fill="#B49568"/>
<path d="M13.8807 28.6167C14.3195 30.9964 15.1323 33.2915 16.2888 35.4164C16.773 36.3242 17.4771 37.0958 18.3365 37.6603C18.6881 37.8725 19.0909 37.9846 19.5014 37.9846C19.9119 37.9846 20.3147 37.8725 20.6663 37.6603C21.1169 37.3801 21.5177 37.0265 21.8521 36.6142C22.8011 35.4225 23.5379 34.076 24.0303 32.6337C24.6019 31.0114 25.037 29.344 25.331 27.649C21.5178 26.6897 17.5305 26.6592 13.7031 27.5601C13.7397 27.9158 13.8076 28.2715 13.8807 28.6167Z" fill="#B49568"/>
<path d="M8.47275 33.1407C7.83931 32.3148 7.27166 31.4403 6.77506 30.5254C6.11703 30.9644 5.48881 31.4467 4.89453 31.969C7.29321 34.6805 10.3963 36.6723 13.8584 37.7226L13.4039 37.4925C11.4781 36.3979 9.79921 34.9162 8.47275 33.1407Z" fill="#B49568"/>
<path d="M23.6311 35.9854C23.2887 36.5667 22.886 37.1102 22.4297 37.6068C23.3505 37.3569 24.238 36.9969 25.0729 36.5346C26.8697 35.5179 28.4367 34.1394 29.6749 32.4861C30.2484 31.7333 30.7635 30.9377 31.2159 30.1062C29.6893 29.1797 28.0517 28.4504 26.3422 27.9355C26.2848 28.2389 26.2273 28.5423 26.1646 28.8352C25.7089 31.3393 24.8534 33.7536 23.6311 35.9854Z" fill="#B49568"/>
<path d="M5.98464 6.73639C6.2615 6.95084 6.55402 7.15483 6.84655 7.35359C8.34514 4.50339 10.6177 2.13533 13.4023 0.522484C13.5538 0.438796 13.7052 0.365568 13.8567 0.287109C10.4493 1.32187 7.38932 3.26989 5.00781 5.92042C5.32123 6.19764 5.6451 6.47486 5.98464 6.73639Z" fill="#B49568"/>
<path d="M4.28864 31.2359C4.59162 30.9692 4.90504 30.7129 5.22368 30.4566C5.54233 30.2003 5.96022 29.9335 6.34677 29.6667C4.8386 26.4996 4.03142 23.0436 3.98044 19.5352H0C0.109975 23.8007 1.61682 27.9118 4.28864 31.2359Z" fill="#B49568"/>
<path d="M25.5951 0.523113C27.5191 1.61139 29.1978 3.08581 30.5262 4.85401C31.1318 5.64393 31.6749 6.47986 32.1508 7.35422C32.7955 6.91471 33.4114 6.43426 33.9948 5.91582C31.6105 3.26832 28.5488 1.32394 25.1406 0.292969C25.2921 0.371427 25.4436 0.444655 25.5951 0.523113Z" fill="#B49568"/>
<path d="M12.6356 27.832C11.2454 28.2177 9.89778 28.7434 8.61341 29.4012C8.29999 29.5633 7.98657 29.736 7.68359 29.9243C9.08703 32.6809 11.2519 34.9758 13.9207 36.5357C14.7592 36.9981 15.6501 37.3581 16.5743 37.6079C16.4907 37.5243 16.4124 37.4406 16.334 37.3516C15.3015 36.0512 14.5074 34.5778 13.9886 32.9998C13.3964 31.3174 12.9439 29.589 12.6356 27.832Z" fill="#B49568"/>
<path d="M32.582 8.19675C34.1301 11.4004 34.9558 14.9057 35.0006 18.4643H38.9863C38.8726 14.1409 37.3252 9.97835 34.5879 6.63281C34.2588 6.92572 33.9245 7.20817 33.5693 7.48539C33.2141 7.76261 32.9111 7.9666 32.582 8.19675Z" fill="#B49568"/>
<path d="M34.5502 31.4347C37.32 28.0776 38.8869 23.8882 39.0008 19.5352H34.9994C34.95 23.1165 34.1098 26.6425 32.5391 29.8603C33.2479 30.3339 33.9201 30.8602 34.5502 31.4347Z" fill="#B49568"/>
<path d="M3.98044 18.4637C4.03085 14.9045 4.85999 11.3997 6.40946 8.19612C5.70353 7.71815 5.02995 7.19395 4.39312 6.62695C1.65528 9.97378 0.109468 14.1388 0 18.4637H3.98044Z" fill="#B49568"/>
<path d="M30.4334 28.584C30.8513 28.7985 31.2588 29.0286 31.6505 29.2692C33.1146 26.2303 33.9006 22.9088 33.9542 19.5352H27.1112C27.0936 22.0349 26.8893 24.5299 26.5 26.9992C27.859 27.3995 29.1763 27.9303 30.4334 28.584Z" fill="#B49568"/>
<path d="M25.5977 37.4761L25.1484 37.7063C28.5312 36.6821 31.5743 34.7609 33.9556 32.1462C33.5951 31.8219 33.2295 31.5081 32.8377 31.2047C32.6131 31.0321 32.378 30.8595 32.1377 30.6816C30.6374 33.5159 28.371 35.8704 25.5977 37.4761Z" fill="#B49568"/>
<path d="M22.4297 0.392578L22.6595 0.648875C23.6909 1.95088 24.4865 3.42376 25.0102 5.0007C25.5917 6.64911 26.0372 8.34252 26.3422 10.0639C27.671 9.67376 28.96 9.15888 30.1921 8.52609C30.5525 8.33779 30.9025 8.13903 31.2368 7.93504C29.8348 5.23919 27.6973 2.99728 25.0729 1.47007C24.2392 1.00393 23.3515 0.64206 22.4297 0.392578Z" fill="#B49568"/>
<path d="M27.1099 18.4637H33.9529C33.9055 15.1069 33.1321 11.8002 31.6858 8.77148C30.0603 9.72822 28.3187 10.4718 26.5039 10.984C26.8893 13.4589 27.0918 15.9589 27.1099 18.4637Z" fill="#B49568"/>
</g>
<defs>
<clipPath id="clip0_315_1125">
<rect width="39" height="38" fill="white"/>
</clipPath>
</defs>
</svg>
